<?xml version="1.0" encoding="UTF-8"?>
<svg version="1.1" xmlns="http://www.w3.org/2000/svg" width="1747" height="1263">
<path d="M0 0 C5.83274125 0.51888118 11.34564825 1.42163276 16.99462891 2.95166016 C17.74574196 3.14946831 18.49685501 3.34727646 19.27072906 3.5510788 C21.75766423 4.20765205 24.24206306 4.87333715 26.7265625 5.5390625 C28.51351093 6.01276599 30.3006143 6.48588531 32.08786011 6.95846558 C35.92229589 7.97367393 39.7556264 8.99292061 43.58813477 10.01538086 C49.71529368 11.65001655 55.84477962 13.27580375 61.97460938 14.90039062 C70.48168871 17.15582266 78.98775695 19.41502838 87.49316406 21.67675781 C99.05270833 24.75020412 110.61538272 27.81170703 122.1796875 30.8671875 C123.06486494 31.10107618 123.95004238 31.33496487 124.86204338 31.57594109 C128.41673501 32.51515285 131.97144413 33.45429838 135.52619076 34.39330196 C141.7850857 36.04666421 148.0436327 37.70133857 154.30200195 39.35668945 C172.61216767 44.19954427 190.92380554 49.03674938 209.23828125 53.86328125 C210.16383945 54.10720926 211.08939766 54.35113728 212.04300308 54.60245705 C215.79945751 55.59245612 219.55591911 56.58242796 223.31238365 57.57238865 C226.1457581 58.3190836 228.97912964 59.06578954 231.8125 59.8125 C232.74895859 60.05929127 233.68541718 60.30608253 234.6502533 60.56035233 C266.38809867 68.92479071 298.11441684 77.33210731 329.83621597 85.75717545 C362.03011502 94.30735815 394.2362755 102.80974027 426.45237732 111.27585983 C458.67331799 119.74346045 490.87981689 128.26422056 523.07806396 136.81768799 C553.22667247 144.82642593 583.3849426 152.79725974 613.55469894 160.72595978 C646.49570209 169.38302434 679.42813465 178.07169719 712.34884644 186.80563354 C716.18496947 187.82329074 720.02120071 188.84053965 723.85745239 189.85771179 C755.25247605 198.18619642 786.62494569 206.5959676 818 215 C818 514.31 818 813.62 818 1122 C799.63521622 1117.40880405 799.63521622 1117.40880405 792.74609375 1115.51171875 C791.54041496 1115.18226761 791.54041496 1115.18226761 790.31037903 1114.84616089 C787.68556531 1114.12849291 785.0614656 1113.40826235 782.4375 1112.6875 C778.53533847 1111.61652217 774.6329851 1110.54624668 770.73046875 1109.4765625 C769.71074982 1109.1969014 768.69103088 1108.9172403 767.64041138 1108.62910461 C759.86842026 1106.50150125 752.08609324 1104.41418885 744.30078125 1102.3359375 C707.56601404 1092.50715521 670.80783972 1082.54422053 636 1067 C635.16033691 1066.62504395 634.32067383 1066.25008789 633.45556641 1065.86376953 C625.44507652 1062.22353662 618.11707284 1058.47945867 612 1052 C611.43539062 1051.45472656 610.87078125 1050.90945313 610.2890625 1050.34765625 C582.40873449 1021.52116327 582.00112667 976.63715289 581.50112362 939.50904565 C581.47190329 937.36128206 581.44138672 935.21354031 581.41051662 933.06579983 C580.92365385 899.07692311 580.66221283 865.0866663 580.45649824 831.0950841 C580.4412 828.58728447 580.42556341 826.07948717 580.40981603 823.57169032 C579.89841193 742.08718502 579.87851207 660.60358458 579.92797244 579.11778581 C579.9360906 565.58837128 579.94142883 552.05895747 579.94506836 538.52954102 C579.94533108 537.55573555 579.94559381 536.58193009 579.94586449 535.57861537 C579.94717094 530.68606203 579.94843431 525.79350868 579.94967639 520.90095532 C579.95979254 481.2672997 579.97716469 441.63365024 580 402 C579.03673388 401.79291633 578.07346777 401.58583265 577.08101177 401.37247372 C530.29661841 391.31328645 483.52929491 381.19266904 436.83032227 370.74331665 C423.48990676 367.75918342 410.14547796 364.79304509 396.80078125 361.828125 C396.13628165 361.68047959 395.47178205 361.53283417 394.78714609 361.38071465 C303.94076006 341.1974938 212.90436477 321.40505877 116.92553711 305.67700195 C115.55842448 305.45281885 114.19131832 305.22859628 112.82421875 305.0043335 C110.21962329 304.5772058 107.61426684 304.1564082 105.00805664 303.73907471 C86.04803258 300.64023692 69.46655755 293.78550094 55 281 C54.11957031 280.26265625 53.23914062 279.5253125 52.33203125 278.765625 C20.35055084 251.15960806 4.1279976 206.68028041 0.71810246 165.60422421 C0.06158467 156.44328498 -0.1379525 147.34495889 -0.11352539 138.16040039 C-0.11324241 136.6409658 -0.11340341 135.12153107 -0.1139679 133.60209656 C-0.11425154 129.52872221 -0.1084256 125.4553781 -0.10139394 121.3820107 C-0.09508756 117.10594799 -0.09455089 112.82988439 -0.09336853 108.55381775 C-0.09027649 100.47947016 -0.08209214 92.40513632 -0.07201904 84.33079475 C-0.06079137 75.12868918 -0.05533078 65.9265829 -0.05032361 56.72447217 C-0.03990745 37.81630702 -0.02234975 18.90815462 0 0 Z " fill="#FEFEFE" transform="translate(0,141)"/>
<path d="M0 0 C1.29183685 14.74151711 1.16452991 29.50921499 1.16725707 44.29430199 C1.16797558 46.48962524 1.17012479 48.68494253 1.17275429 50.88026428 C1.1819648 58.58489366 1.1860948 66.28950592 1.18530273 73.99414062 C1.18470386 81.10131066 1.19522945 88.20840433 1.2110464 95.3155551 C1.22425794 101.47841344 1.22948098 107.64124725 1.22884732 113.80411959 C1.22859619 117.45773299 1.23122796 121.11127842 1.24202538 124.76487732 C1.38347084 176.26595514 -5.80268128 227.87256039 -41 268 C-41.70640625 268.83917969 -42.4128125 269.67835938 -43.140625 270.54296875 C-52.52863153 281.43373172 -63.21665322 289.60832661 -76 296 C-77.08023438 296.54527344 -78.16046875 297.09054687 -79.2734375 297.65234375 C-87.13210815 301.18604806 -94.91720708 302.89945661 -103.36328125 304.39453125 C-104.54849365 304.60907959 -105.73370605 304.82362793 -106.95483398 305.04467773 C-117.1523693 306.87901929 -127.36679675 308.61337609 -137.58422852 310.33276367 C-172.84555999 316.27171739 -207.93723841 322.99232642 -243 330 C-244.06019096 330.21167187 -244.06019096 330.21167187 -245.14179993 330.42761993 C-299.68760674 341.31918499 -354.01130235 353.20369088 -408.32546997 365.18923187 C-414.19838538 366.48506361 -420.07144917 367.78022243 -425.94450545 369.07541549 C-429.42501767 369.84298886 -432.90551632 370.61062376 -436.38601685 371.37825012 C-441.35382268 372.47389906 -446.32164166 373.56948838 -451.28947604 374.66500789 C-454.84712783 375.44956094 -458.40476712 376.23417065 -461.96240234 377.01879883 C-462.666637 377.17411257 -463.37087165 377.32942631 -464.09644675 377.48944652 C-472.41492649 379.32409238 -480.73310455 381.16009427 -489.05074501 382.99854153 C-494.95732835 384.30406926 -500.86417039 385.60842312 -506.77108002 386.91247368 C-509.16798003 387.44189007 -511.56478241 387.97174876 -513.96146393 388.5021534 C-529.60521702 391.96405398 -545.26395524 395.35098487 -560.931427 398.70367432 C-562.88695426 399.12238734 -564.84247525 399.54112965 -566.79798985 399.95990181 C-571.53192119 400.97360467 -576.26593663 401.98691392 -581 403 C-581.00146521 404.82803678 -581.00146521 404.82803678 -581.00296003 406.69300359 C-581.04622106 460.42214007 -581.09318965 514.15127223 -581.15898132 567.88038635 C-581.15997689 568.69427742 -581.16097246 569.50816849 -581.16199819 570.34672292 C-581.18365853 588.03629078 -581.20598136 605.72585774 -581.22898628 623.4154239 C-581.24026445 632.09083257 -581.25139627 640.76624143 -581.26245117 649.44165039 C-581.26355374 650.30494141 -581.2646563 651.16823242 -581.26579228 652.05768377 C-581.30143802 680.02140072 -581.32742725 707.98511648 -581.34838969 735.94884797 C-581.36998889 764.6937982 -581.40136838 793.43872165 -581.44499113 822.18364729 C-581.45115305 826.24699969 -581.45720358 830.31035225 -581.46318626 834.37370491 C-581.46436715 835.17340285 -581.46554803 835.97310078 -581.46676469 836.79703199 C-581.48546012 849.65140746 -581.49389631 862.50577002 -581.49846124 875.36015742 C-581.50327473 888.29439198 -581.51897918 901.22857747 -581.54566566 914.1627857 C-581.56117825 921.83994911 -581.56847528 929.51701563 -581.56376929 937.19419382 C-581.56117064 942.9393344 -581.57425354 948.68435668 -581.59323552 954.42946256 C-581.59848429 956.74468318 -581.59875855 959.05992191 -581.59339563 961.37514227 C-581.56661184 974.25558224 -582.17052945 986.41166531 -585 999 C-585.19193398 999.85743048 -585.38386797 1000.71486095 -585.58161813 1001.59827417 C-590.66036968 1022.42146612 -601.25703347 1048.70348585 -620.2265625 1060.45703125 C-660.63522741 1082.93790821 -707.75946974 1093.4877818 -752.1038475 1105.2841835 C-766.81119184 1109.19748684 -781.4791544 1113.24912419 -796.13778687 1117.34100342 C-798.03358286 1117.87020416 -799.92954518 1118.39880956 -801.82569885 1118.92672729 C-803.5096325 1119.3956773 -805.19313229 1119.86618953 -806.87608337 1120.33865356 C-807.98567162 1120.64765091 -807.98567162 1120.64765091 -809.11767578 1120.96289062 C-810.06841476 1121.22906189 -810.06841476 1121.22906189 -811.0383606 1121.50061035 C-813.33874615 1122.08623721 -815.67233765 1122.53446753 -818 1123 C-818 823.69 -818 524.38 -818 216 C-785.42075955 207.27341774 -752.84550245 198.55509471 -720.2175293 190.01629639 C-709.55403507 187.22485099 -698.89223343 184.42694896 -688.23046875 181.62890625 C-686.6201005 181.20633293 -686.6201005 181.20633293 -684.97719955 180.77522278 C-663.64235965 175.17606339 -642.31897305 169.53423156 -621 163.875 C-614.23443635 162.07919588 -607.46883341 160.28353992 -600.703125 158.48828125 C-599.86361864 158.26551262 -599.02411228 158.04274399 -598.15916634 157.81322479 C-577.0288 152.20682751 -555.88952137 146.634258 -534.75 141.0625 C-527.08851088 139.04308552 -519.42704264 137.0235919 -511.765625 135.00390625 C-510.81869781 134.75428383 -509.87177063 134.50466141 -508.89614868 134.24747467 C-487.76125102 128.67575063 -466.63040416 123.08873653 -445.5 117.5 C-414.88189334 109.40204143 -384.25999852 101.31855582 -353.63549805 93.24481201 C-324.92068286 85.67446467 -296.20886691 78.09287311 -267.5 70.5 C-238.78803564 62.90630768 -210.0730921 55.32401262 -181.35520172 47.75276184 C-149.77619878 39.42709147 -118.1988576 31.09516415 -86.625 22.75 C-85.24942554 22.38645983 -85.24942554 22.38645983 -83.84606171 22.01557541 C-60.10681667 15.74162504 -36.36983513 9.45967319 -12.65478516 3.09472656 C-11.42882629 2.76634041 -11.42882629 2.76634041 -10.17810059 2.43132019 C-8.70312038 2.03616897 -7.22840623 1.64002258 -5.75402832 1.24263 C-1.11247834 0 -1.11247834 0 0 0 Z " fill="#FEFEFE" transform="translate(1746,140)"/>
<path d="M0 0 C0.7942101 0.18632775 1.5884202 0.37265551 2.40669727 0.56462955 C5.03912086 1.18494705 7.66747675 1.82099469 10.29614258 2.45703125 C12.19409368 2.90738914 14.09229431 3.35669658 15.99072266 3.80503845 C20.07603011 4.77196885 24.15963017 5.74571035 28.24203491 6.724823 C34.80010086 8.29745051 41.36183212 9.85437453 47.92431641 11.40844727 C54.81519206 13.04083988 61.70591829 14.67383422 68.59550476 16.31166077 C90.48931279 21.51527574 112.40328076 26.63061247 134.32241821 31.72631836 C140.74913576 33.22039972 147.17539833 34.71643115 153.6015625 36.21289062 C155.76296428 36.71619929 157.92436667 37.21950536 160.08576965 37.72280884 C161.15684275 37.97221851 162.22791584 38.22162819 163.33144569 38.47859573 C167.65622722 39.48556853 171.98108202 40.4922264 176.30593777 41.49888039 C190.29532357 44.75507811 204.28414247 48.01370528 218.27270508 51.2734375 C219.33395725 51.52073797 220.39520943 51.76803844 221.48862076 52.02283287 C226.84776794 53.27166999 232.20690639 54.52054451 237.56604004 55.7694397 C247.24215951 58.02435631 256.91833591 60.27902862 266.59451675 62.53368187 C268.74456974 63.0346673 270.89462213 63.53565531 273.04467392 64.03664589 C287.86792523 67.4906548 302.69129953 70.9441354 317.51475716 74.39725876 C325.93705817 76.35925349 334.35932938 78.3213762 342.78158951 80.28354645 C344.88137835 80.77274285 346.98116828 81.26193457 349.08095932 81.75112152 C375.61428509 87.93261581 402.14656896 94.11856275 428.67749 100.31036949 C430.74029142 100.79178554 432.80309537 101.27319078 434.86590004 101.7545929 C448.24232606 104.87629291 461.61869348 107.99824343 474.99481583 111.12124443 C479.94182922 112.2761933 484.88890247 113.4308856 489.83598709 114.58552933 C492.11236977 115.11690011 494.38872568 115.64838557 496.66505051 116.18000412 C497.72968143 116.42863834 498.79431236 116.67727257 499.89120483 116.93344116 C500.93674404 117.17777956 501.98228325 117.42211796 503.05950546 117.67386055 C505.1130138 118.15247614 507.16701455 118.62898449 509.22153091 119.10325432 C514.65753461 120.35964273 520.0805266 121.6553413 525.49472046 123.00286865 C527.23867993 123.42788823 527.23867993 123.42788823 529.0178709 123.86149406 C531.23549458 124.40227837 533.45020821 124.95520606 535.66112232 125.52279854 C545.30520904 127.84709389 553.33323574 126.79196532 562.82324219 124.39379883 C563.5974756 124.20414928 564.371709 124.01449974 565.16940403 123.81910324 C567.72890385 123.19050325 570.28589634 122.55226317 572.84301758 121.9140625 C574.68396352 121.46012354 576.52507317 121.00684804 578.36633301 120.55418396 C582.31693773 119.58170639 586.26650303 118.60515208 590.21530151 117.62536621 C596.54719309 116.05452913 602.88146691 114.49346233 609.21630859 112.93457031 C610.28864463 112.67067316 611.36098066 112.40677601 612.46581173 112.13488197 C614.64894776 111.59764952 616.83209237 111.06045192 619.01524544 110.52328873 C622.33676686 109.70574577 625.65807959 108.88735948 628.97935486 108.06881714 C649.36860366 103.04563402 669.77707154 98.10376337 690.19112015 93.18249893 C698.64850259 91.14326934 707.10515546 89.10101508 715.56176758 87.05859375 C716.51592497 86.82816942 717.47008236 86.59774509 718.45315361 86.36033821 C743.81060988 80.23573185 769.15666758 74.06426388 794.50317383 67.89453125 C803.94061987 65.59743453 813.37810965 63.30051756 822.81567383 61.00390625 C823.97893251 60.72082737 825.1421912 60.43774849 826.34070015 60.14609146 C851.05811667 54.13150469 875.77995275 48.13520738 900.50317383 42.14453125 C901.4995713 41.90309261 902.49596878 41.66165398 903.52256012 41.41289902 C905.52906426 40.92670245 907.53556896 40.44050815 909.5420742 39.95431614 C914.57338335 38.73519016 919.60468655 37.51603965 924.63598633 36.296875 C926.13266531 35.93421571 926.13266531 35.93421571 927.65958023 35.56422997 C944.29326721 31.53361509 960.9258281 27.49837074 977.55786133 23.4609375 C978.72710396 23.17710709 979.89634659 22.89327667 981.10102081 22.60084534 C991.38976886 20.10324324 1001.6784678 17.6054389 1011.96704102 15.1071167 C1013.03119106 14.84872639 1014.09534111 14.59033607 1015.19173813 14.32411575 C1017.2957941 13.8131848 1019.39983135 13.30217671 1021.50384903 12.7910881 C1026.49165961 11.57966943 1031.47983142 10.36978752 1036.46893311 9.16369629 C1047.93646812 6.39061387 1047.93646812 6.39061387 1059.3855648 3.54263592 C1061.44886927 3.02227684 1063.51319838 2.50620857 1065.57791138 1.99147034 C1067.95949207 1.39582776 1070.3389177 0.791449 1072.71530151 0.17539978 C1073.74631989 -0.08091721 1074.77733826 -0.33723419 1075.83959961 -0.60131836 C1076.70223419 -0.82178329 1077.56486877 -1.04224823 1078.4536438 -1.26939392 C1088.42235759 -2.77661732 1097.90545137 -0.79520941 1107.69042969 1.06982422 C1109.3210736 1.37373423 1110.95186585 1.67684922 1112.58279228 1.97923946 C1117.02806436 2.80577598 1121.47117328 3.6434516 1125.91399598 4.48304009 C1130.67277019 5.38027368 1135.43350405 6.26699204 1140.1940155 7.154953 C1149.41873065 8.8772724 1158.64166274 10.60895707 1167.86399359 12.34399301 C1178.49930691 14.34452468 1189.13626966 16.33621324 1199.77339363 18.32709134 C1213.77065469 20.94693059 1227.7675908 23.5684902 1241.76348877 26.19560242 C1266.23107081 30.78791676 1290.70238043 35.3592033 1315.1804772 39.89514685 C1321.03109091 40.97931002 1326.8814535 42.06481771 1332.73161316 43.15142822 C1333.53238256 43.300159 1334.33315195 43.44888978 1335.15818709 43.60212755 C1338.32531725 44.19041022 1341.49243632 44.77875251 1344.65952861 45.367239 C1352.99561341 46.91618859 1361.33208083 48.46298858 1369.66989136 50.00262451 C1376.01547549 51.17440415 1382.36006507 52.35138963 1388.7033717 53.53543907 C1391.89223199 54.13049323 1395.0816696 54.7220658 1398.27214622 55.30840111 C1401.68272958 55.93550062 1405.09140887 56.57205708 1408.49975586 57.21118164 C1409.49739425 57.39220366 1410.49503263 57.57322567 1411.52290249 57.7597332 C1412.42309644 57.93059 1413.32329039 58.1014468 1414.25076294 58.27748108 C1415.02977526 58.42191178 1415.80878757 58.56634249 1416.61140633 58.71514988 C1418.50317383 59.26953125 1418.50317383 59.26953125 1420.50317383 61.26953125 C1409.0030812 64.23228016 1397.45592672 66.85470363 1385.83959961 69.31835938 C1384.01562265 69.70740399 1382.19169962 70.0967015 1380.36782551 70.48622799 C1376.45118098 71.32214937 1372.53416805 72.1563139 1368.6168499 72.9890728 C1362.32323935 74.32700308 1356.03047744 75.66889614 1349.73780823 77.01124573 C1340.7284933 78.93270784 1331.71879648 80.8523696 1322.70883179 82.77078247 C1300.20415238 87.56267059 1277.70161282 92.36459547 1255.19893527 97.16587377 C1251.64896296 97.92327345 1248.09896823 98.68056797 1244.54896736 99.43783379 C1208.63064214 107.09990837 1172.72009247 114.79656855 1136.82097626 122.54815674 C1125.56304623 124.97902981 1114.30479789 127.40842577 1103.04614258 129.8359375 C1102.40193769 129.97483918 1101.75773279 130.11374085 1101.09400654 130.25685167 C1074.23248264 136.04818489 1047.36251841 141.79998837 1020.49145508 147.546875 C1019.43184012 147.77349414 1018.37222516 148.00011328 1017.28050065 148.23359966 C1001.96308978 151.50943591 986.64545436 154.78422171 971.32777548 158.05880451 C952.74808053 162.0307348 934.16844413 166.00293853 915.58911133 169.9765625 C914.53081234 170.20290406 913.47251335 170.42924562 912.38214469 170.66244602 C877.9372215 178.0295681 843.49830208 185.4239521 809.06655884 192.85241699 C787.66364619 197.46989416 766.25892978 202.07900996 744.85397214 206.68699682 C740.57457583 207.60825971 736.2952026 208.52962965 732.01586151 209.45114899 C706.59555085 214.9251636 681.17393465 220.39304105 655.74949265 225.8478384 C644.99740364 228.15483371 634.24584649 230.46424452 623.4956665 232.78012085 C614.35761781 234.7486958 605.21853635 236.71238378 596.07808071 238.66975385 C591.35777161 239.68073973 586.6380067 240.69411391 581.91953087 241.71362495 C577.55366597 242.65687504 573.18642326 243.59344723 568.81800437 244.52479517 C567.23016686 244.86454784 565.64284852 245.20673774 564.05611062 245.55158937 C561.89523846 246.02084145 559.73264937 246.48118578 557.56941223 246.93939209 C556.36570889 247.19799892 555.16200556 247.45660576 553.92182636 247.72304916 C548.62297918 248.57008613 543.7133458 248.49412392 538.46730042 247.40841675 C537.52181335 247.21624982 536.57632629 247.02408289 535.60218811 246.82609272 C534.58152756 246.6113288 533.560867 246.39656488 532.50927734 246.17529297 C530.86014847 245.83691926 530.86014847 245.83691926 529.17770386 245.49170971 C525.49442942 244.73416733 521.8132953 243.96670034 518.13208008 243.19921875 C515.4900206 242.65359417 512.84785496 242.10850918 510.20555115 241.56407166 C503.75369502 240.23335198 497.30341657 238.89513002 490.85362428 237.55444723 C483.23680323 235.97150442 475.61836453 234.39641235 467.99990964 232.82135546 C448.63232332 228.81670548 429.26843095 224.79432252 409.90516376 220.76884937 C406.75116586 220.1132062 403.59713004 219.45774554 400.44309187 218.8022961 C364.86099985 211.40786008 329.28258796 203.99585278 293.70693207 196.57051659 C274.67949476 192.59913413 255.65079816 188.63392314 236.61996078 184.67885971 C150.03862543 166.68517405 63.49117308 148.52842619 -257.55932617 78.83203125 C-258.80140839 78.54601044 -260.0434906 78.25998962 -261.32321167 77.96530151 C-274.44237509 74.93704926 -287.53633144 71.806961 -300.60665703 68.57459831 C-302.0103594 68.22784021 -303.41441946 67.88252622 -304.81886482 67.53878975 C-311.88304332 65.80683879 -318.76212549 64.0351016 -325.49682617 61.26953125 C-322.9672158 58.73992088 -321.33158897 58.62210517 -317.83837891 57.89794922 C-316.61004837 57.63975906 -315.38171783 57.38156891 -314.11616516 57.11555481 C-312.72096536 56.83070457 -311.32571467 56.54610352 -309.93041992 56.26171875 C-308.42589368 55.94958311 -306.92147742 55.63691692 -305.41716003 55.32377625 C-301.16922711 54.44225676 -296.91908504 53.57182025 -292.66840363 52.70366287 C-289.92389409 52.14239784 -287.17997613 51.57832458 -284.43621826 51.01339722 C-241.92440326 42.26414012 -199.3493853 33.82347748 -156.77986765 25.3604784 C-154.14140104 24.83592294 -151.50295561 24.31126107 -148.8645134 23.78658295 C-128.96754338 19.83020445 -109.06860683 15.88397966 -89.1645155 11.96356964 C-87.62363283 11.66006405 -86.08275103 11.35655405 -84.54187012 11.05303955 C-83.41046253 10.83018815 -83.41046253 10.83018815 -82.25619823 10.6028347 C-77.0705896 9.58095034 -71.88595699 8.55421715 -66.70178223 7.52508545 C-59.94313737 6.18345316 -53.18264958 4.85151099 -46.42069626 3.5266552 C-43.98165964 3.04726038 -41.543243 2.56469833 -39.10551834 2.07867622 C-35.79800226 1.41983296 -32.48839173 0.77276553 -29.17797852 0.12866211 C-28.2327319 -0.06247477 -27.28748528 -0.25361164 -26.31359482 -0.45054054 C-17.20200635 -2.19773462 -9.00682977 -2.22297689 0 0 Z " fill="#FEFEFE" transform="translate(325.496826171875,1.73046875)"/>
</svg>
